# xmcd CD database file
#
# Track frame offsets:
#	150
#	23198
#	46651
#	69297
#	91688
#	113867
#	136492
#	155582
#	176995
#	199635
#
# Disc length: 2961 seconds
#
# Revision: 0
# Processed by: cddbd v1.5.1PL0 Copyright (c) Steve Scherf et al.
# Submitted via: CDex 1.51
#
DISCID=7e0b8f0a
DTITLE=Dirk K - Urban Standards
DYEAR=1900
DGENRE=Jazz
TTITLE0=My foolish heart
TTITLE1=Summertime
TTITLE2=My funny valentine
TTITLE3=Naima
TTITLE4=Out of nowhere
TTITLE5=Misty
TTITLE6=Mr PC
TTITLE7=ou don't know what love is
TTITLE8=Take five
TTITLE9=In a sentimental mode
EXTD=
EXTT0=
EXTT1=
EXTT2=
EXTT3=
EXTT4=
EXTT5=
EXTT6=
EXTT7=
EXTT8=
EXTT9=
PLAYORDER=
